<svg width="14" height="14" viewBox="0 0 14 14" fill="none" xmlns="http://www.w3.org/2000/svg">
<path d="M7.00016 0.333374C5.68162 0.333374 4.39269 0.724367 3.29636 1.45691C2.20004 2.18945 1.34555 3.23064 0.840969 4.44882C0.336385 5.66699 0.204362 7.00743 0.461597 8.30064C0.718832 9.59385 1.35377 10.7817 2.28612 11.7141C3.21847 12.6464 4.40636 13.2814 5.69956 13.5386C6.99277 13.7958 8.33321 13.6638 9.55139 13.1592C10.7696 12.6547 11.8108 11.8002 12.5433 10.7038C13.2758 9.60751 13.6668 8.31858 13.6668 7.00004C13.6647 5.23257 12.9617 3.53809 11.7119 2.2883C10.4621 1.03851 8.76763 0.335459 7.00016 0.333374ZM9.57107 8.71459C9.62896 8.77049 9.67513 8.83737 9.70689 8.91131C9.73866 8.98525 9.75537 9.06478 9.75607 9.14525C9.75677 9.22572 9.74144 9.30553 9.71097 9.38001C9.68049 9.45449 9.63549 9.52216 9.57858 9.57907C9.52168 9.63597 9.45401 9.68097 9.37953 9.71145C9.30505 9.74192 9.22524 9.75725 9.14477 9.75655C9.0643 9.75586 8.98477 9.73914 8.91083 9.70737C8.83689 9.67561 8.77001 9.62944 8.7141 9.57155L7.00016 7.85701L5.28623 9.57155C5.17192 9.68195 5.01883 9.74304 4.85992 9.74166C4.70101 9.74028 4.54901 9.67654 4.43664 9.56417C4.32427 9.4518 4.26053 9.2998 4.25915 9.14089C4.25777 8.98198 4.31886 8.82889 4.42926 8.71459L6.1432 7.00004L4.42926 5.28549C4.37137 5.22959 4.3252 5.16271 4.29344 5.08877C4.26167 5.01483 4.24496 4.9353 4.24426 4.85483C4.24356 4.77436 4.25889 4.69455 4.28936 4.62007C4.31984 4.54559 4.36484 4.47792 4.42174 4.42101C4.47865 4.36411 4.54632 4.31911 4.6208 4.28863C4.69528 4.25816 4.77509 4.24283 4.85556 4.24352C4.93603 4.24422 5.01556 4.26094 5.0895 4.29271C5.16344 4.32447 5.23032 4.37064 5.28623 4.42852L7.00016 6.14307L8.7141 4.42852C8.77001 4.37064 8.83689 4.32447 8.91083 4.29271C8.98477 4.26094 9.0643 4.24422 9.14477 4.24352C9.22524 4.24283 9.30505 4.25816 9.37953 4.28863C9.45401 4.31911 9.52168 4.36411 9.57858 4.42101C9.63549 4.47792 9.68049 4.54559 9.71097 4.62007C9.74144 4.69455 9.75677 4.77436 9.75607 4.85483C9.75537 4.9353 9.73866 5.01483 9.70689 5.08877C9.67513 5.16271 9.62896 5.22959 9.57107 5.28549L7.85713 7.00004L9.57107 8.71459Z" fill="white"/>
</svg>
