<svg width="8" height="10" viewBox="0 0 8 10" fill="none" xmlns="http://www.w3.org/2000/svg">
<path d="M1.7516 7.99408C3.1516 8.03253 4.96664 7.99412 6.22727 7.97821C5.16518 9.12932 4.93287 8.98084 4.05469 10C3.26051 9.1433 3.06887 9.37329 1.7516 7.99408ZM6.22727 6.66791V5.34174H7.5V6.66791H6.22727ZM4.31818 6.66791V5.34174H5.59091V6.66791H4.31818ZM2.40909 6.66791V5.34174H3.68182V6.66791H2.40909ZM0.5 6.66791V5.34174H1.77273V6.66791H0.5ZM6.22727 4.67866V3.35249H7.5V4.67866H6.22727ZM4.31818 4.67866V3.35249H5.59091V4.67866H4.31818ZM2.40909 4.67866V3.35249H3.68182V4.67866H2.40909ZM0.5 4.67866V3.35249H1.77273V4.67866H0.5ZM1.75284 2.02632L1.77459 2.00317H1.75284C3.07011 0.624622 3.26175 0.854052 4.05593 0C4.93411 1.01916 5.16642 0.870723 6.22852 2.01985H6.20739L6.22852 2.04235C4.96661 2.03108 3.14905 1.98861 1.7516 2.02972L1.75284 2.02632Z" fill="#212121"/>
</svg>
