<svg width="48" height="48" viewBox="0 0 48 48" fill="none" xmlns="http://www.w3.org/2000/svg">
<rect width="48" height="48" rx="24" fill="#FFF2F2"/>
<path fill-rule="evenodd" clip-rule="evenodd" d="M24.1848 12.0291C23.447 12.0291 22.7167 12.177 22.037 12.4639C21.3572 12.7508 20.7419 13.1711 20.2273 13.6998C19.7127 14.2285 19.3092 14.8549 19.0407 15.5422C18.7722 16.2294 18.6442 16.9634 18.6641 17.701L18.6643 17.7102V22.2025H17.3019V17.7283C17.2784 16.812 17.4381 15.9002 17.7717 15.0464C18.1064 14.1896 18.6094 13.4086 19.251 12.7495C19.8926 12.0903 20.6597 11.5664 21.5071 11.2087C22.3545 10.851 23.265 10.6667 24.1848 10.6667C25.1046 10.6667 26.0151 10.851 26.8625 11.2087C27.7099 11.5664 28.4771 12.0903 29.1187 12.7495C29.7602 13.4086 30.2632 14.1896 30.5979 15.0464C30.9315 15.9002 31.0912 16.812 31.0677 17.7283V22.189H29.7053V17.7102L29.7056 17.701C29.7255 16.9634 29.5974 16.2294 29.3289 15.5422C29.0604 14.8549 28.657 14.2285 28.1423 13.6998C27.6277 13.1711 27.0124 12.7508 26.3327 12.4639C25.6529 12.177 24.9226 12.0291 24.1848 12.0291Z" fill="#FB6E6D"/>
<path fill-rule="evenodd" clip-rule="evenodd" d="M31.6157 22.4318H16.7422C15.612 22.4318 14.6958 23.348 14.6958 24.4782V33.9245C14.6958 35.0547 15.612 35.9709 16.7422 35.9709H31.6157C32.7459 35.9709 33.6621 35.0547 33.6621 33.9245V24.4782C33.6621 23.348 32.7459 22.4318 31.6157 22.4318ZM16.7422 21.0693H31.6157C33.4984 21.0693 35.0246 22.5955 35.0246 24.4782V33.9245C35.0246 35.8071 33.4984 37.3333 31.6157 37.3333H16.7422C14.8596 37.3333 13.3334 35.8071 13.3334 33.9245V24.4782C13.3334 22.5955 14.8596 21.0693 16.7422 21.0693Z" fill="#FB6E6D"/>
<path fill-rule="evenodd" clip-rule="evenodd" d="M24.6324 27.9867C24.6317 27.9031 24.6077 27.8213 24.5631 27.7505C24.5185 27.6796 24.4551 27.6227 24.38 27.5859C24.3048 27.5491 24.2209 27.534 24.1376 27.5422C24.0544 27.5504 23.9751 27.5817 23.9086 27.6325C23.842 27.6833 23.7909 27.7517 23.7611 27.8297C23.7312 27.9078 23.7237 27.9927 23.7393 28.0749C23.755 28.1571 23.7932 28.2333 23.8498 28.295C23.9063 28.3567 23.9789 28.4014 24.0594 28.4242L24.185 28.4596L24.3091 28.4244C24.4031 28.3978 24.4857 28.3409 24.5441 28.2627C24.6026 28.1844 24.6336 28.0891 24.6325 27.9913L24.6324 27.9867ZM25.0515 29.584C24.9345 29.6476 24.8102 29.6985 24.6805 29.7353V31.9472C24.6805 32.0795 24.628 32.2064 24.5345 32.2999C24.441 32.3934 24.3141 32.4459 24.1818 32.4459C24.0506 32.4444 23.9252 32.3912 23.833 32.2978C23.7407 32.2044 23.689 32.0785 23.689 31.9472V29.7353C23.5596 29.6987 23.4353 29.648 23.3181 29.5845C23.1419 29.4891 22.982 29.3646 22.8454 29.2156C22.6179 28.9674 22.464 28.6607 22.401 28.33C22.3379 27.9993 22.3682 27.6575 22.4885 27.343C22.6088 27.0286 22.8143 26.7538 23.0819 26.5495C23.3495 26.3452 23.6687 26.2195 24.0037 26.1864C24.3388 26.1533 24.6764 26.2142 24.9789 26.3622C25.2813 26.5102 25.5365 26.7394 25.7159 27.0243C25.8954 27.3092 25.9919 27.6384 25.9948 27.9751C25.9995 28.3721 25.8734 28.7597 25.6358 29.0778C25.4789 29.288 25.2791 29.4601 25.0515 29.584Z" fill="#FB6E6D"/>
</svg>
