<svg width="55" height="95" viewBox="0 0 55 95" fill="none" xmlns="http://www.w3.org/2000/svg">
<rect width="55" height="95" fill="#FC695C"/>
<path d="M18.6585 38.6585C13.7805 43.5366 13.7805 51.4634 18.6585 56.3415C23.5366 61.2195 31.4634 61.2195 36.3415 56.3415C41.2195 51.4634 41.2195 43.5366 36.3415 38.6585C31.4634 33.7805 23.5366 33.7805 18.6585 38.6585ZM20.6021 54.3979C17.134 50.9298 16.8291 45.4421 19.7256 41.6311L33.3689 55.2744C29.5579 58.1709 24.0701 57.866 20.6021 54.3979L20.6021 54.3979ZM35.2743 53.3688L21.5929 39.7255C25.4039 36.8293 30.8917 37.1342 34.3597 40.602C37.8275 44.0701 38.1704 49.5578 35.2742 53.3688L35.2743 53.3688Z" fill="white"/>
</svg>
