<svg width="16" height="14" viewBox="0 0 16 14" fill="none" xmlns="http://www.w3.org/2000/svg">
<path d="M7.2511 5.25817V8.38304C7.2511 8.79658 7.58642 9.13177 7.99982 9.13177C8.41336 9.13177 8.74855 8.79645 8.74855 8.38304V5.25817C8.74855 4.84463 8.41323 4.50944 7.99982 4.50944C7.58628 4.50944 7.2511 4.84463 7.2511 5.25817Z" fill="#C20006"/>
<path d="M8.00019 11.2046C8.41373 11.2046 8.74892 10.8694 8.74892 10.4559C8.74892 10.0423 8.41373 9.70716 8.00019 9.70716C7.58665 9.70716 7.25146 10.0423 7.25146 10.4559C7.25146 10.8694 7.58665 11.2046 8.00019 11.2046Z" fill="#C20006"/>
<path fill-rule="evenodd" clip-rule="evenodd" d="M15.2993 11.4477L9.29697 1.05123C9.02942 0.587945 8.53504 0.302502 8.00006 0.302502C7.46507 0.302502 6.97083 0.587949 6.70314 1.05123L0.700765 11.4477C0.433078 11.9113 0.433078 12.4818 0.700765 12.9454C0.968321 13.4089 1.4627 13.6941 1.99768 13.6941H14.0024C14.5373 13.6941 15.0318 13.4088 15.2993 12.9454C15.5669 12.4818 15.567 11.9111 15.2993 11.4477ZM8.00029 1.79975L1.99811 12.1963H14.0027L8.00029 1.79975Z" fill="#C20006"/>
</svg>
